<?xml version="1.0" encoding="UTF-8"?> <svg xmlns="http://www.w3.org/2000/svg" xmlns:xlink="http://www.w3.org/1999/xlink" version="1.1" viewBox="0 0 400 400"><defs><style> .st0 { fill: #80bc00; } .st1 { isolation: isolate; } .st2 { fill: url(#linear-gradient1); } .st2, .st3, .st4, .st5 { mix-blend-mode: multiply; opacity: .25; } .st3 { fill: url(#linear-gradient2); } .st4 { fill: url(#linear-gradient3); } .st5 { fill: url(#linear-gradient); } .st6 { fill: #161616; } </style><linearGradient id="linear-gradient" x1="-12735.66" y1="12282.16" x2="-12663.08" y2="12282.16" gradientTransform="translate(4625.58 -7719.46) scale(.35 .64)" gradientUnits="userSpaceOnUse"><stop offset="0" stop-color="#fff"></stop><stop offset="1" stop-color="#000"></stop></linearGradient><linearGradient id="linear-gradient1" x1="-12735.66" y1="12335.73" x2="-12663.08" y2="12335.73" gradientTransform="translate(4601.25 -7729.56) scale(.35 .64)" xlink:href="#linear-gradient"></linearGradient><linearGradient id="linear-gradient2" x1="-24551.25" y1="-6179.94" x2="-24478.67" y2="-6179.94" gradientTransform="translate(8732.02 4112.45) scale(.35 .64)" xlink:href="#linear-gradient"></linearGradient><linearGradient id="linear-gradient3" x1="-24551.25" y1="-6126.37" x2="-24478.67" y2="-6126.37" gradientTransform="translate(8756.15 4102.53) scale(.35 .64)" xlink:href="#linear-gradient"></linearGradient></defs><g class="st1"><g id="Capa_1"><g><g><path class="st6" d="M62.47,292.57h0c-1.83,0-3.32-1.5-3.32-3.32v-40.92c0-1.83,1.5-3.32,3.32-3.32h0c1.83,0,3.32,1.5,3.32,3.32v40.92c0,1.83-1.5,3.32-3.32,3.32Z"></path><path class="st6" d="M86.63,286.86l-11.43-11.43,11.36-11.36c1.29-1.29,1.29-3.41,0-4.7-1.29-1.29-3.41-1.29-4.7,0l-11.36,11.36-4.7,4.7,4.7,4.7,11.43,11.43c1.29,1.29,3.41,1.29,4.7,0,1.29-1.29,1.29-3.41,0-4.7Z"></path><path class="st6" d="M101.8,285.81s0,0,0,0c-1.39,0-2.53-1.13-2.53-2.52v-34.97c0-1.83-1.5-3.32-3.32-3.32s-3.32,1.5-3.32,3.32v34.99h0c.01,5.05,4.1,9.15,9.16,9.16,0,0,.01,0,.02,0,1.84,0,3.32-1.49,3.32-3.33s-1.48-3.33-3.32-3.33Z"></path><g><path class="st6" d="M113.45,258.63c-1.83,0-3.32,1.5-3.32,3.32v27.29c0,1.83,1.5,3.32,3.32,3.32s3.32-1.5,3.32-3.32v-27.29c0-1.83-1.5-3.32-3.32-3.32Z"></path><circle class="st6" cx="113.45" cy="248.53" r="3.83"></circle></g><path class="st6" d="M138.96,258.45c-9.16,0-16.61,7.26-16.95,16.33-.01.11-.03.21-.03.33v27.29c0,1.83,1.5,3.32,3.32,3.32s3.32-1.5,3.32-3.32v-13.5c2.87,2.21,6.44,3.53,10.34,3.53,9.38,0,16.99-7.61,16.99-16.99s-7.61-16.99-16.99-16.99ZM138.96,285.78c-5.71,0-10.33-4.63-10.33-10.33s4.63-10.33,10.33-10.33,10.33,4.63,10.33,10.33-4.63,10.33-10.33,10.33Z"></path><path class="st6" d="M178.68,275.5l12.55-12.55c.65-.65.65-1.7,0-2.35-.65-.65-1.7-.65-2.35,0l-12.55,12.55-12.55-12.55c-.65-.65-1.7-.65-2.35,0-.65.65-.65,1.7,0,2.35l12.55,12.55-12.55,12.55c-.65.65-.65,1.7,0,2.35s1.7.65,2.35,0l12.55-12.55,12.55,12.55c.65.65,1.7.65,2.35,0,.65-.65.65-1.7,0-2.35l-12.55-12.55Z"></path><path class="st6" d="M225.18,263.41h0c-2.3,0-4.19,1.88-4.21,4.17v21.66c0,.91-.75,1.66-1.66,1.66s-1.66-.75-1.66-1.66v-21.72s0-.08.01-.12c.12-4.03,3.43-7.3,7.49-7.32,0,0,.04,0,.04,0,.92,0,1.66.75,1.66,1.66s-.74,1.66-1.66,1.66Z"></path><path class="st6" d="M210.48,287.61h0c-2.3,0-4.19-1.88-4.21-4.17v-20.09h4.31c.92,0,1.66-.74,1.66-1.66s-.74-1.66-1.66-1.66h-4.31v-11.64c0-.91-.75-1.66-1.66-1.66s-1.66.75-1.66,1.66v11.64h-4.29c-.92,0-1.66.74-1.66,1.66s.74,1.66,1.66,1.66h4.29v20.15s0,.08.01.12c.12,4.03,3.44,7.3,7.49,7.32,0,0,.04,0,.04,0,.92,0,1.66-.75,1.66-1.66s-.74-1.66-1.66-1.66Z"></path><path class="st6" d="M258.37,264.52h0c-6.03-5.98-15.77-5.96-21.78.05-6.03,6.03-6.03,15.8,0,21.83,6.02,6.02,15.79,6.03,21.82.01h0c.65-.65.65-1.71,0-2.37-.65-.65-1.71-.66-2.37,0h0c-4.33,4.32-11.12,4.66-15.85,1.04l18.17-18.17h0s0,0,0,0c0,0,.02-.01.02-.02.65-.65.65-1.71,0-2.36,0,0,0,0-.01,0ZM237.84,282.71c-3.55-4.73-3.18-11.47,1.12-15.77,4.3-4.3,11.04-4.67,15.77-1.12l-16.89,16.89Z"></path><path class="st6" d="M340.54,264.52h0c-6.03-5.98-15.77-5.96-21.78.05-6.03,6.03-6.03,15.8,0,21.83,6.02,6.02,15.79,6.03,21.82.01h0c.65-.65.65-1.71,0-2.37-.65-.65-1.71-.66-2.37,0h0c-4.33,4.32-11.12,4.66-15.85,1.04l18.17-18.17h0s0,0,0,0c0,0,.02-.01.02-.02.65-.65.65-1.71,0-2.36,0,0,0,0-.01,0ZM320.02,282.71c-3.55-4.73-3.18-11.47,1.12-15.77,4.3-4.3,11.04-4.67,15.77-1.12l-16.89,16.89Z"></path><path class="st6" d="M309.21,272.1s0-.02,0-.02c0-6.71-5.44-12.15-12.15-12.15-4.46,0-8.35,2.41-10.47,6-2.11-3.59-6-6-10.47-6-6.71,0-12.15,5.44-12.15,12.15,0,0,0,.02,0,.02h0v17.13s0,0,0,0c0,0,0,0,0,0h0s0,0,0,0c0,.92.76,1.67,1.68,1.67s1.67-.75,1.68-1.67h0v-17.15h0v-.03c0-4.85,3.94-8.77,8.79-8.77s8.79,3.93,8.79,8.78c0,0,0,17.17,0,17.17h0c0,.92.76,1.67,1.68,1.67s1.67-.75,1.68-1.67h0s0-.01,0-.01c0,0,0,0,0,0,0,0,0-17.15,0-17.16,0-4.85,3.93-8.77,8.78-8.77s8.79,3.92,8.79,8.77v.03h0v17.15h0c0,.92.76,1.67,1.68,1.67s1.67-.75,1.68-1.67h0s0-.01,0-.01c0,0,0,0,0,0v-17.13h0Z"></path></g><g><path class="st0" d="M233.1,155.5l21.49-21.49c9.27-9.27,9.27-24.29,0-33.55-9.27-9.27-24.29-9.27-33.55,0l-21.49,21.49-21.49-21.49c-9.27-9.27-24.29-9.27-33.55,0h0c-9.27,9.27-9.27,24.29,0,33.55l21.49,21.49-21.49,21.49c-9.27,9.27-9.27,24.29,0,33.55h0c9.27,9.27,24.29,9.27,33.55,0l21.49-21.49,21.49,21.49c9.27,9.27,24.29,9.27,33.55,0,9.27-9.27,9.27-24.29,0-33.55l-21.49-21.49ZM153.99,124.74c-4.08-4.08-4.08-10.71,0-14.79,4.09-4.09,10.71-4.09,14.79,0l21.38,21.38-14.79,14.79-21.38-21.38ZM168.78,201.06c-4.09,4.08-10.71,4.08-14.79,0-4.08-4.08-4.08-10.71,0-14.79l21.38-21.38,14.79,14.79-21.38,21.38ZM184.75,155.5l45.55-45.55c4.08-4.09,10.71-4.09,14.79,0,4.09,4.08,4.09,10.71,0,14.79l-30.76,30.76,30.76,30.76c4.09,4.08,4.09,10.71,0,14.79-4.08,4.09-10.71,4.09-14.79,0l-45.55-45.55Z"></path><rect class="st5" x="173.19" y="111.03" width="25.37" height="13.24" transform="translate(137.64 -96.98) rotate(45)"></rect><rect class="st2" x="149.02" y="135.2" width="25.37" height="13.24" transform="translate(147.65 -72.81) rotate(45)"></rect><rect class="st3" x="149.02" y="162.54" width="25.37" height="13.24" transform="translate(-72.25 163.89) rotate(-45)"></rect><rect class="st4" x="173.19" y="186.71" width="25.37" height="13.24" transform="translate(-82.27 188.06) rotate(-45)"></rect></g></g></g></g></svg> 